<mxfile host="app.diagrams.net" agent="Mozilla/5.0 (X11; Linux x86_64) AppleWebKit/537.36 (KHTML, like Gecko) Chrome/124.0.0.0 Safari/537.36" version="26.2.13">
  <diagram name="Page-1" id="ufeKWDXyBaF76dYuDrgO">
    <mxGraphModel dx="2206" dy="1898" grid="1" gridSize="10" guides="1" tooltips="1" connect="1" arrows="1" fold="1" page="1" pageScale="1" pageWidth="850" pageHeight="1100" math="0" shadow="0">
      <root>
        <mxCell id="0" />
        <mxCell id="1" parent="0" />
        <mxCell id="Sj0SwTU4w7hzmFPMQQI5-6" style="edgeStyle=orthogonalEdgeStyle;rounded=0;orthogonalLoop=1;jettySize=auto;html=1;entryX=0;entryY=0.5;entryDx=0;entryDy=0;" edge="1" parent="1" source="Sj0SwTU4w7hzmFPMQQI5-1" target="Sj0SwTU4w7hzmFPMQQI5-2">
          <mxGeometry relative="1" as="geometry" />
        </mxCell>
        <mxCell id="Sj0SwTU4w7hzmFPMQQI5-1" value="router" style="rounded=0;whiteSpace=wrap;html=1;" vertex="1" parent="1">
          <mxGeometry x="-200" y="390" width="120" height="60" as="geometry" />
        </mxCell>
        <mxCell id="Sj0SwTU4w7hzmFPMQQI5-7" style="edgeStyle=orthogonalEdgeStyle;rounded=0;orthogonalLoop=1;jettySize=auto;html=1;entryX=0.5;entryY=0;entryDx=0;entryDy=0;" edge="1" parent="1" source="Sj0SwTU4w7hzmFPMQQI5-2" target="Sj0SwTU4w7hzmFPMQQI5-12">
          <mxGeometry relative="1" as="geometry">
            <mxPoint x="340" y="240" as="targetPoint" />
          </mxGeometry>
        </mxCell>
        <mxCell id="Sj0SwTU4w7hzmFPMQQI5-2" value="coreTeam" style="rounded=0;whiteSpace=wrap;html=1;" vertex="1" parent="1">
          <mxGeometry x="80" y="390" width="120" height="60" as="geometry" />
        </mxCell>
        <mxCell id="Sj0SwTU4w7hzmFPMQQI5-12" value="coreChatBot" style="swimlane;fontStyle=0;childLayout=stackLayout;horizontal=1;startSize=30;horizontalStack=0;resizeParent=1;resizeParentMax=0;resizeLast=0;collapsible=1;marginBottom=0;whiteSpace=wrap;html=1;" vertex="1" parent="1">
          <mxGeometry x="260" y="390" width="140" height="60" as="geometry" />
        </mxCell>
        <mxCell id="Sj0SwTU4w7hzmFPMQQI5-13" value="&lt;span style=&quot;font-family: monospace; text-align: center;&quot;&gt;whole_graph()&lt;/span&gt;" style="text;strokeColor=none;fillColor=none;align=left;verticalAlign=middle;spacingLeft=4;spacingRight=4;overflow=hidden;points=[[0,0.5],[1,0.5]];portConstraint=eastwest;rotatable=0;whiteSpace=wrap;html=1;" vertex="1" parent="Sj0SwTU4w7hzmFPMQQI5-12">
          <mxGeometry y="30" width="140" height="30" as="geometry" />
        </mxCell>
        <mxCell id="Sj0SwTU4w7hzmFPMQQI5-17" value="&lt;h1 style=&quot;margin-top: 0px;&quot;&gt;whole_graph()&lt;/h1&gt;&lt;div&gt;api/core/teams/langgraph/router_graph.py&lt;br&gt;&lt;/div&gt;&lt;div&gt;add node and add edge&lt;/div&gt;" style="text;html=1;whiteSpace=wrap;overflow=hidden;rounded=0;" vertex="1" parent="1">
          <mxGeometry x="-180" y="-260" width="280" height="80" as="geometry" />
        </mxCell>
        <mxCell id="Sj0SwTU4w7hzmFPMQQI5-18" value="&lt;code&gt;GreetingGraph&lt;/code&gt;" style="swimlane;fontStyle=0;childLayout=stackLayout;horizontal=1;startSize=20;horizontalStack=0;resizeParent=1;resizeParentMax=0;resizeLast=0;collapsible=1;marginBottom=0;whiteSpace=wrap;html=1;" vertex="1" parent="1">
          <mxGeometry x="910" y="400" width="200" height="50" as="geometry" />
        </mxCell>
        <mxCell id="Sj0SwTU4w7hzmFPMQQI5-19" value="&lt;code&gt;&lt;span class=&quot;nf&quot;&gt;greeting_graph&lt;/span&gt;&lt;span class=&quot;p&quot;&gt;(&lt;/span&gt;&lt;span class=&quot;n&quot;&gt;self&lt;/span&gt;&lt;span class=&quot;p&quot;&gt;)&lt;/span&gt;&lt;/code&gt;" style="text;strokeColor=none;fillColor=none;align=left;verticalAlign=middle;spacingLeft=4;spacingRight=4;overflow=hidden;points=[[0,0.5],[1,0.5]];portConstraint=eastwest;rotatable=0;whiteSpace=wrap;html=1;" vertex="1" parent="Sj0SwTU4w7hzmFPMQQI5-18">
          <mxGeometry y="20" width="200" height="30" as="geometry" />
        </mxCell>
        <mxCell id="Sj0SwTU4w7hzmFPMQQI5-23" style="edgeStyle=orthogonalEdgeStyle;rounded=0;orthogonalLoop=1;jettySize=auto;html=1;entryX=0;entryY=0.5;entryDx=0;entryDy=0;" edge="1" parent="1" source="Sj0SwTU4w7hzmFPMQQI5-13" target="Sj0SwTU4w7hzmFPMQQI5-19">
          <mxGeometry relative="1" as="geometry" />
        </mxCell>
        <mxCell id="Sj0SwTU4w7hzmFPMQQI5-24" value="worflow.addNode() will&lt;div style=&quot;text-align: start;&quot;&gt;&lt;font face=&quot;Roboto Mono, SFMono-Regular, Consolas, Menlo, monospace&quot; color=&quot;#ba0054&quot;&gt;&lt;span style=&quot;font-size: 14.96px; font-variant-ligatures: none; white-space-collapse: preserve; background-color: rgb(245, 245, 245);&quot;&gt;Take a State (&lt;/span&gt;&lt;/font&gt;&lt;code&gt;&lt;span class=&quot;kn&quot;&gt;from&lt;/span&gt; &lt;span class=&quot;n&quot;&gt;langgraph.graph&lt;/span&gt; &lt;span class=&quot;kn&quot;&gt;import&lt;/span&gt; &lt;span class=&quot;n&quot;&gt;MessagesState&lt;/span&gt;&lt;/code&gt;&lt;span style=&quot;background-color: transparent; color: light-dark(rgb(0, 0, 0), rgb(255, 255, 255)); text-align: center;&quot;&gt;)&lt;/span&gt;&lt;/div&gt;" style="text;html=1;align=center;verticalAlign=middle;resizable=0;points=[];autosize=1;strokeColor=none;fillColor=none;" vertex="1" parent="1">
          <mxGeometry x="435" y="370" width="450" height="50" as="geometry" />
        </mxCell>
        <mxCell id="Sj0SwTU4w7hzmFPMQQI5-29" value="api/internal/common/schemas/bot_graph.py" style="text;html=1;align=center;verticalAlign=middle;resizable=0;points=[];autosize=1;strokeColor=none;fillColor=none;" vertex="1" parent="1">
          <mxGeometry x="360" y="80" width="260" height="30" as="geometry" />
        </mxCell>
        <mxCell id="Sj0SwTU4w7hzmFPMQQI5-30" value="&lt;code&gt;MeetingState&lt;/code&gt;" style="swimlane;fontStyle=1;align=center;verticalAlign=top;childLayout=stackLayout;horizontal=1;startSize=26;horizontalStack=0;resizeParent=1;resizeParentMax=0;resizeLast=0;collapsible=1;marginBottom=0;whiteSpace=wrap;html=1;" vertex="1" parent="1">
          <mxGeometry x="360" y="110" width="350" height="198" as="geometry" />
        </mxCell>
        <mxCell id="Sj0SwTU4w7hzmFPMQQI5-31" value="&lt;pre lang=&quot;python&quot; class=&quot;code highlight&quot;&gt; &lt;span class=&quot;n&quot;&gt;meeting_info&lt;/span&gt;&lt;span class=&quot;p&quot;&gt;:&lt;/span&gt; &lt;span class=&quot;n&quot;&gt;Dict&lt;/span&gt;&lt;span class=&quot;p&quot;&gt;[&lt;/span&gt;&lt;span class=&quot;nb&quot;&gt;str&lt;/span&gt;&lt;span class=&quot;p&quot;&gt;,&lt;/span&gt; &lt;span class=&quot;n&quot;&gt;Any&lt;/span&gt;&lt;span class=&quot;p&quot;&gt;]&lt;/span&gt;&lt;br/&gt;    &lt;span class=&quot;n&quot;&gt;user_info&lt;/span&gt;&lt;span class=&quot;p&quot;&gt;:&lt;/span&gt; &lt;span class=&quot;n&quot;&gt;Dict&lt;/span&gt;&lt;span class=&quot;p&quot;&gt;[&lt;/span&gt;&lt;span class=&quot;nb&quot;&gt;str&lt;/span&gt;&lt;span class=&quot;p&quot;&gt;,&lt;/span&gt; &lt;span class=&quot;n&quot;&gt;Any&lt;/span&gt;&lt;span class=&quot;p&quot;&gt;]&lt;/span&gt;&lt;br/&gt;    &lt;span class=&quot;n&quot;&gt;params&lt;/span&gt;&lt;span class=&quot;p&quot;&gt;:&lt;/span&gt; &lt;span class=&quot;n&quot;&gt;Dict&lt;/span&gt;&lt;span class=&quot;p&quot;&gt;[&lt;/span&gt;&lt;span class=&quot;nb&quot;&gt;str&lt;/span&gt;&lt;span class=&quot;p&quot;&gt;,&lt;/span&gt; &lt;span class=&quot;n&quot;&gt;Any&lt;/span&gt;&lt;span class=&quot;p&quot;&gt;]&lt;/span&gt;&lt;br/&gt;    &lt;span class=&quot;n&quot;&gt;participant_ids&lt;/span&gt;&lt;span class=&quot;p&quot;&gt;:&lt;/span&gt; &lt;span class=&quot;nb&quot;&gt;list&lt;/span&gt;&lt;br/&gt;    &lt;span class=&quot;n&quot;&gt;room_ids&lt;/span&gt;&lt;span class=&quot;p&quot;&gt;:&lt;/span&gt; &lt;span class=&quot;nb&quot;&gt;list&lt;/span&gt;&lt;br/&gt;    &lt;span class=&quot;n&quot;&gt;meeting_id&lt;/span&gt;&lt;span class=&quot;p&quot;&gt;:&lt;/span&gt; &lt;span class=&quot;nb&quot;&gt;str&lt;/span&gt;&lt;br/&gt;    &lt;span class=&quot;n&quot;&gt;room_status&lt;/span&gt;&lt;span class=&quot;p&quot;&gt;:&lt;/span&gt; &lt;span class=&quot;nb&quot;&gt;str&lt;/span&gt;&lt;br/&gt;    &lt;span class=&quot;n&quot;&gt;meetings&lt;/span&gt;&lt;span class=&quot;p&quot;&gt;:&lt;/span&gt; &lt;span class=&quot;nb&quot;&gt;list&lt;/span&gt;&lt;br/&gt;    &lt;span class=&quot;n&quot;&gt;updated_meeting&lt;/span&gt;&lt;span class=&quot;p&quot;&gt;:&lt;/span&gt; &lt;span class=&quot;n&quot;&gt;Dict&lt;/span&gt;&lt;span class=&quot;p&quot;&gt;[&lt;/span&gt;&lt;span class=&quot;nb&quot;&gt;str&lt;/span&gt;&lt;span class=&quot;p&quot;&gt;,&lt;/span&gt; &lt;span class=&quot;n&quot;&gt;Any&lt;/span&gt;&lt;span class=&quot;p&quot;&gt;]&lt;/span&gt;&lt;br/&gt;&lt;/pre&gt;" style="text;strokeColor=none;fillColor=none;align=left;verticalAlign=top;spacingLeft=4;spacingRight=4;overflow=hidden;rotatable=0;points=[[0,0.5],[1,0.5]];portConstraint=eastwest;whiteSpace=wrap;html=1;" vertex="1" parent="Sj0SwTU4w7hzmFPMQQI5-30">
          <mxGeometry y="26" width="350" height="164" as="geometry" />
        </mxCell>
        <mxCell id="Sj0SwTU4w7hzmFPMQQI5-32" value="" style="line;strokeWidth=1;fillColor=none;align=left;verticalAlign=middle;spacingTop=-1;spacingLeft=3;spacingRight=3;rotatable=0;labelPosition=right;points=[];portConstraint=eastwest;strokeColor=inherit;" vertex="1" parent="Sj0SwTU4w7hzmFPMQQI5-30">
          <mxGeometry y="190" width="350" height="8" as="geometry" />
        </mxCell>
        <mxCell id="Sj0SwTU4w7hzmFPMQQI5-44" style="edgeStyle=orthogonalEdgeStyle;rounded=0;orthogonalLoop=1;jettySize=auto;html=1;entryX=0;entryY=0.5;entryDx=0;entryDy=0;" edge="1" parent="1" source="Sj0SwTU4w7hzmFPMQQI5-35" target="Sj0SwTU4w7hzmFPMQQI5-40">
          <mxGeometry relative="1" as="geometry" />
        </mxCell>
        <mxCell id="Sj0SwTU4w7hzmFPMQQI5-35" value="&lt;code&gt;MessagesState&lt;/code&gt;" style="html=1;whiteSpace=wrap;" vertex="1" parent="1">
          <mxGeometry x="130" y="136" width="110" height="50" as="geometry" />
        </mxCell>
        <mxCell id="Sj0SwTU4w7hzmFPMQQI5-36" style="edgeStyle=orthogonalEdgeStyle;rounded=0;orthogonalLoop=1;jettySize=auto;html=1;entryX=0;entryY=0.366;entryDx=0;entryDy=0;entryPerimeter=0;" edge="1" parent="1" source="Sj0SwTU4w7hzmFPMQQI5-35" target="Sj0SwTU4w7hzmFPMQQI5-31">
          <mxGeometry relative="1" as="geometry" />
        </mxCell>
        <mxCell id="Sj0SwTU4w7hzmFPMQQI5-37" value="implement" style="text;html=1;align=center;verticalAlign=middle;resizable=0;points=[];autosize=1;strokeColor=none;fillColor=none;" vertex="1" parent="1">
          <mxGeometry x="270" y="128" width="80" height="30" as="geometry" />
        </mxCell>
        <mxCell id="Sj0SwTU4w7hzmFPMQQI5-38" style="edgeStyle=orthogonalEdgeStyle;rounded=0;orthogonalLoop=1;jettySize=auto;html=1;" edge="1" parent="1" source="Sj0SwTU4w7hzmFPMQQI5-31" target="Sj0SwTU4w7hzmFPMQQI5-24">
          <mxGeometry relative="1" as="geometry">
            <Array as="points">
              <mxPoint x="840" y="218" />
              <mxPoint x="840" y="335" />
              <mxPoint x="660" y="335" />
            </Array>
          </mxGeometry>
        </mxCell>
        <mxCell id="Sj0SwTU4w7hzmFPMQQI5-39" value="api/core/teams/langgraph/greeting_graph.py" style="text;html=1;align=center;verticalAlign=middle;resizable=0;points=[];autosize=1;strokeColor=none;fillColor=none;" vertex="1" parent="1">
          <mxGeometry x="900" y="370" width="260" height="30" as="geometry" />
        </mxCell>
        <mxCell id="Sj0SwTU4w7hzmFPMQQI5-40" value="&lt;code&gt;&lt;b&gt;GetRoomState&lt;/b&gt;&lt;/code&gt;" style="swimlane;fontStyle=0;childLayout=stackLayout;horizontal=1;startSize=26;fillColor=none;horizontalStack=0;resizeParent=1;resizeParentMax=0;resizeLast=0;collapsible=1;marginBottom=0;whiteSpace=wrap;html=1;" vertex="1" parent="1">
          <mxGeometry x="230" y="-40" width="140" height="52" as="geometry" />
        </mxCell>
        <mxCell id="Sj0SwTU4w7hzmFPMQQI5-41" value="&lt;code&gt;&lt;span class=&quot;n&quot;&gt;room_id&lt;/span&gt;&lt;span class=&quot;p&quot;&gt;:&lt;/span&gt; &lt;span class=&quot;nb&quot;&gt;list&lt;/span&gt;&lt;/code&gt;" style="text;strokeColor=none;fillColor=none;align=left;verticalAlign=top;spacingLeft=4;spacingRight=4;overflow=hidden;rotatable=0;points=[[0,0.5],[1,0.5]];portConstraint=eastwest;whiteSpace=wrap;html=1;" vertex="1" parent="Sj0SwTU4w7hzmFPMQQI5-40">
          <mxGeometry y="26" width="140" height="26" as="geometry" />
        </mxCell>
        <mxCell id="Sj0SwTU4w7hzmFPMQQI5-47" value="Node sẽ nhận vào state" style="text;html=1;align=center;verticalAlign=middle;resizable=0;points=[];autosize=1;strokeColor=none;fillColor=none;" vertex="1" parent="1">
          <mxGeometry x="-230" y="260" width="150" height="30" as="geometry" />
        </mxCell>
        <mxCell id="Sj0SwTU4w7hzmFPMQQI5-50" value="Edge sẽ nối node này với node khác" style="text;html=1;align=center;verticalAlign=middle;resizable=0;points=[];autosize=1;strokeColor=none;fillColor=none;" vertex="1" parent="1">
          <mxGeometry x="-230" y="230" width="220" height="30" as="geometry" />
        </mxCell>
        <mxCell id="Sj0SwTU4w7hzmFPMQQI5-51" value="Có thể lấy dữ liệu từ user input -&amp;gt; query (chắc chắn rồi)" style="text;html=1;align=center;verticalAlign=middle;resizable=0;points=[];autosize=1;strokeColor=none;fillColor=none;" vertex="1" parent="1">
          <mxGeometry x="-230" y="290" width="320" height="30" as="geometry" />
        </mxCell>
        <mxCell id="Sj0SwTU4w7hzmFPMQQI5-52" value="LangchainService" style="swimlane;fontStyle=0;childLayout=stackLayout;horizontal=1;startSize=26;fillColor=none;horizontalStack=0;resizeParent=1;resizeParentMax=0;resizeLast=0;collapsible=1;marginBottom=0;whiteSpace=wrap;html=1;" vertex="1" parent="1">
          <mxGeometry x="-350" y="870" width="140" height="52" as="geometry" />
        </mxCell>
        <mxCell id="Sj0SwTU4w7hzmFPMQQI5-55" value="&lt;div style=&quot;color: rgb(201, 209, 217); background-color: rgb(13, 17, 23); font-family: &amp;quot;Droid Sans Mono&amp;quot;, &amp;quot;monospace&amp;quot;, monospace; font-size: 14px; line-height: 19px; white-space: pre;&quot;&gt;&lt;span style=&quot;color: rgb(210, 168, 255);&quot;&gt;+getModel()&lt;/span&gt;&lt;/div&gt;" style="text;strokeColor=none;fillColor=none;align=left;verticalAlign=top;spacingLeft=4;spacingRight=4;overflow=hidden;rotatable=0;points=[[0,0.5],[1,0.5]];portConstraint=eastwest;whiteSpace=wrap;html=1;" vertex="1" parent="Sj0SwTU4w7hzmFPMQQI5-52">
          <mxGeometry y="26" width="140" height="26" as="geometry" />
        </mxCell>
        <mxCell id="Sj0SwTU4w7hzmFPMQQI5-57" value="LLM service" style="text;html=1;align=center;verticalAlign=middle;resizable=0;points=[];autosize=1;strokeColor=none;fillColor=none;" vertex="1" parent="1">
          <mxGeometry x="-380" y="840" width="90" height="30" as="geometry" />
        </mxCell>
        <mxCell id="Sj0SwTU4w7hzmFPMQQI5-58" value="ApprovalChatBot" style="swimlane;fontStyle=0;childLayout=stackLayout;horizontal=1;startSize=26;fillColor=none;horizontalStack=0;resizeParent=1;resizeParentMax=0;resizeLast=0;collapsible=1;marginBottom=0;whiteSpace=wrap;html=1;" vertex="1" parent="1">
          <mxGeometry x="-140" y="660" width="200" height="180" as="geometry" />
        </mxCell>
        <mxCell id="Sj0SwTU4w7hzmFPMQQI5-61" value="+ + xxxController: type" style="text;strokeColor=none;fillColor=none;align=left;verticalAlign=top;spacingLeft=4;spacingRight=4;overflow=hidden;rotatable=0;points=[[0,0.5],[1,0.5]];portConstraint=eastwest;whiteSpace=wrap;html=1;" vertex="1" parent="Sj0SwTU4w7hzmFPMQQI5-58">
          <mxGeometry y="26" width="200" height="26" as="geometry" />
        </mxCell>
        <mxCell id="Sj0SwTU4w7hzmFPMQQI5-67" value="+ llmService: type" style="text;strokeColor=none;fillColor=none;align=left;verticalAlign=top;spacingLeft=4;spacingRight=4;overflow=hidden;rotatable=0;points=[[0,0.5],[1,0.5]];portConstraint=eastwest;whiteSpace=wrap;html=1;" vertex="1" parent="Sj0SwTU4w7hzmFPMQQI5-58">
          <mxGeometry y="52" width="200" height="26" as="geometry" />
        </mxCell>
        <mxCell id="Sj0SwTU4w7hzmFPMQQI5-70" value="+ coreChatBot:" style="text;strokeColor=none;fillColor=none;align=left;verticalAlign=top;spacingLeft=4;spacingRight=4;overflow=hidden;rotatable=0;points=[[0,0.5],[1,0.5]];portConstraint=eastwest;whiteSpace=wrap;html=1;" vertex="1" parent="Sj0SwTU4w7hzmFPMQQI5-58">
          <mxGeometry y="78" width="200" height="26" as="geometry" />
        </mxCell>
        <mxCell id="Sj0SwTU4w7hzmFPMQQI5-72" value="+ memoryStorage" style="text;strokeColor=none;fillColor=none;align=left;verticalAlign=top;spacingLeft=4;spacingRight=4;overflow=hidden;rotatable=0;points=[[0,0.5],[1,0.5]];portConstraint=eastwest;whiteSpace=wrap;html=1;" vertex="1" parent="Sj0SwTU4w7hzmFPMQQI5-58">
          <mxGeometry y="104" width="200" height="26" as="geometry" />
        </mxCell>
        <mxCell id="Sj0SwTU4w7hzmFPMQQI5-73" value="+ graph = coreChatbot.WholeGraph" style="text;strokeColor=none;fillColor=none;align=left;verticalAlign=top;spacingLeft=4;spacingRight=4;overflow=hidden;rotatable=0;points=[[0,0.5],[1,0.5]];portConstraint=eastwest;whiteSpace=wrap;html=1;" vertex="1" parent="Sj0SwTU4w7hzmFPMQQI5-58">
          <mxGeometry y="130" width="200" height="50" as="geometry" />
        </mxCell>
        <mxCell id="Sj0SwTU4w7hzmFPMQQI5-62" value="CoreChatBot" style="swimlane;fontStyle=0;childLayout=stackLayout;horizontal=1;startSize=26;fillColor=none;horizontalStack=0;resizeParent=1;resizeParentMax=0;resizeLast=0;collapsible=1;marginBottom=0;whiteSpace=wrap;html=1;" vertex="1" parent="1">
          <mxGeometry x="120" y="830" width="140" height="76" as="geometry" />
        </mxCell>
        <mxCell id="Sj0SwTU4w7hzmFPMQQI5-74" value="+ whole_Graph" style="text;strokeColor=none;fillColor=none;align=left;verticalAlign=top;spacingLeft=4;spacingRight=4;overflow=hidden;rotatable=0;points=[[0,0.5],[1,0.5]];portConstraint=eastwest;whiteSpace=wrap;html=1;" vertex="1" parent="Sj0SwTU4w7hzmFPMQQI5-62">
          <mxGeometry y="26" width="140" height="50" as="geometry" />
        </mxCell>
        <mxCell id="Sj0SwTU4w7hzmFPMQQI5-66" value="Controller" style="text;html=1;align=center;verticalAlign=middle;resizable=0;points=[];autosize=1;strokeColor=none;fillColor=none;" vertex="1" parent="1">
          <mxGeometry x="-145" y="630" width="80" height="30" as="geometry" />
        </mxCell>
        <mxCell id="Sj0SwTU4w7hzmFPMQQI5-69" style="edgeStyle=orthogonalEdgeStyle;rounded=0;orthogonalLoop=1;jettySize=auto;html=1;entryX=0.5;entryY=0;entryDx=0;entryDy=0;" edge="1" parent="1" source="Sj0SwTU4w7hzmFPMQQI5-67" target="Sj0SwTU4w7hzmFPMQQI5-52">
          <mxGeometry relative="1" as="geometry" />
        </mxCell>
        <mxCell id="Sj0SwTU4w7hzmFPMQQI5-71" style="edgeStyle=orthogonalEdgeStyle;rounded=0;orthogonalLoop=1;jettySize=auto;html=1;entryX=0.5;entryY=0;entryDx=0;entryDy=0;" edge="1" parent="1" source="Sj0SwTU4w7hzmFPMQQI5-70" target="Sj0SwTU4w7hzmFPMQQI5-62">
          <mxGeometry relative="1" as="geometry" />
        </mxCell>
        <mxCell id="Sj0SwTU4w7hzmFPMQQI5-75" value="một đống addNode" style="text;strokeColor=none;fillColor=none;align=left;verticalAlign=middle;spacingLeft=4;spacingRight=4;overflow=hidden;points=[[0,0.5],[1,0.5]];portConstraint=eastwest;rotatable=0;whiteSpace=wrap;html=1;" vertex="1" parent="1">
          <mxGeometry x="190" y="800" width="120" height="30" as="geometry" />
        </mxCell>
      </root>
    </mxGraphModel>
  </diagram>
</mxfile>
